<?xml version="1.0" encoding="utf-8"?>
<!-- Generator: Adobe Illustrator 24.3.0, SVG Export Plug-In . SVG Version: 6.00 Build 0)  -->
<svg version="1.1" id="Layer_1" xmlns="http://www.w3.org/2000/svg" xmlns:xlink="http://www.w3.org/1999/xlink" x="0px" y="0px"
	 viewBox="0 0 369.6 115.3" style="enable-background:new 0 0 369.6 115.3;" xml:space="preserve">
<style type="text/css">
	.st0{fill:#FFFFFF;}
</style>
<g>
	<g>
		<g>
			<g>
				<g>
					<path id="SVGID_1_" class="st0" d="M244.9,112.7h-28.7l-21.3-73.4l-21.6,73.4h-28.5L110.7,2.6h28.2L139,3l20.2,74.3l21.1-74.8
						h29.1l21.6,75l20.3-75h27.8L244.9,112.7z"/>
				</g>
			</g>
			<g>
				<g>
					<path id="SVGID_3_" class="st0" d="M315.2,112.7H290V2.6h25.2V112.7z"/>
				</g>
			</g>
			<g>
				<g>
					<path id="SVGID_5_" class="st0" d="M53.6,115.3c-16.2,0-29.4-5.2-39.1-15.4C4.9,89.5,0,75.5,0,58.1c0-17.2,5.3-31.3,15.7-41.9
						C26.1,5.4,40,0,56.8,0c21.8,0,39.3,9.8,49,27.6l0.9,1.7L88.2,44.4l-1.4-2.1C79.4,31,69.2,25.2,56.7,25.2
						c-9.5,0-17.1,3-22.6,8.9c-5.6,6-8.4,13.8-8.4,23.9c0,9.9,2.7,17.8,8,23.5s12.7,8.6,21.8,8.6c10.6,0,20-5.1,26.8-14.4h-25v-24
						h52.8v61.4H89V99.2c-4.1,5-9,8.8-14.7,11.6C68,113.8,61.1,115.3,53.6,115.3z"/>
				</g>
			</g>
		</g>
	</g>
	<g>
		<path class="st0" d="M348.6,112.7c14.4,0,21-6.7,21-21s-6.7-21-21-21l0,0c-14.4,0-21,6.7-21,21S334.2,112.7,348.6,112.7
			L348.6,112.7z"/>
	</g>
</g>
</svg>
